<svg xmlns="http://www.w3.org/2000/svg" role="img" aria-label="项目记忆服务架构图" viewBox="0 0 980 675" style="font-family:Segoe UI,Microsoft YaHei,sans-serif;fill:#172b32"><defs><marker id="arrow" markerWidth="10" markerHeight="10" refX="8" refY="3" orient="auto"><path d="M0,0 L0,6 L9,3 z" fill="#45616b"/></marker></defs>
<rect x="310" y="20" width="360" height="64" rx="9" fill="#f1f7f6" stroke="#5d8e88"/><text x="490" y="48" text-anchor="middle" font-size="18" font-weight="600">用户消息 人工编辑 工具结果</text><text x="490" y="71" text-anchor="middle" font-size="13" fill="#53616a">保留可验证来源</text>
<path d="M490,84 L490,116" fill="none" stroke="#45616b" stroke-width="1.8" marker-end="url(#arrow)"/><rect x="310" y="120" width="360" height="64" rx="9" fill="#f1f7f6" stroke="#5d8e88"/><text x="490" y="148" text-anchor="middle" font-size="18" font-weight="600">可信宿主适配器</text><text x="490" y="171" text-anchor="middle" font-size="13" fill="#53616a">绑定身份 项目和任务</text>
<path d="M490,184 L490,221" fill="none" stroke="#45616b" stroke-width="1.8" marker-end="url(#arrow)"/><rect x="310" y="225" width="360" height="72" rx="9" fill="#f1f7f6" stroke="#5d8e88"/><text x="490" y="253" text-anchor="middle" font-size="18" font-weight="600">SQL 原始事件与有效记忆</text><text x="490" y="276" text-anchor="middle" font-size="13" fill="#53616a">先保存事件 再提交经提取和校验的记忆</text>
<path d="M310,261 L170,261 L170,345" fill="none" stroke="#45616b" stroke-width="1.8" marker-end="url(#arrow)"/><path d="M670,261 L810,261 L810,345" fill="none" stroke="#45616b" stroke-width="1.8" marker-end="url(#arrow)"/>
<rect x="40" y="350" width="260" height="72" rx="9" fill="#f1f7f6" stroke="#5d8e88"/><text x="170" y="378" text-anchor="middle" font-size="18" font-weight="600">适用约束</text><text x="170" y="401" text-anchor="middle" font-size="13" fill="#53616a">确定性查询 条件与例外</text><rect x="680" y="350" width="260" height="72" rx="9" fill="#f1f7f6" stroke="#5d8e88"/><text x="810" y="378" text-anchor="middle" font-size="18" font-weight="600">相关背景</text><text x="810" y="401" text-anchor="middle" font-size="13" fill="#53616a">全文 向量 增量与证据</text>
<path d="M170,422 L170,496 L301,496" fill="none" stroke="#45616b" stroke-width="1.8" marker-end="url(#arrow)"/><path d="M810,422 L810,496 L679,496" fill="none" stroke="#45616b" stroke-width="1.8" marker-end="url(#arrow)"/>
<rect x="310" y="460" width="360" height="72" rx="9" fill="#f1f7f6" stroke="#5d8e88"/><text x="490" y="488" text-anchor="middle" font-size="18" font-weight="600">本次任务上下文</text><text x="490" y="511" text-anchor="middle" font-size="13" fill="#53616a">当前目标 必需规则 背景与版本收据</text>
<path d="M490,532 L490,574" fill="none" stroke="#45616b" stroke-width="1.8" marker-end="url(#arrow)"/><rect x="310" y="580" width="360" height="64" rx="9" fill="#f1f7f6" stroke="#5d8e88"/><text x="490" y="608" text-anchor="middle" font-size="18" font-weight="600">主 agent 子 agent 与动作入口</text><text x="490" y="631" text-anchor="middle" font-size="13" fill="#53616a">执行前复核版本 时间 授权和租约</text>
</svg>