<svg xmlns="http://www.w3.org/2000/svg" role="img" aria-label="撤销规则与旧动作拒绝时序图" viewBox="0 0 980 570" style="font-family:Segoe UI,Microsoft YaHei,sans-serif;fill:#172b32"><defs><marker id="arrow" markerWidth="10" markerHeight="10" refX="8" refY="3" orient="auto"><path d="M0,0 L0,6 L9,3 z" fill="#45616b"/></marker></defs>
<rect x="65" y="20" width="130" height="42" rx="8" fill="#f1f7f6" stroke="#5d8e88"/><text x="130" y="47" text-anchor="middle" font-size="16">用户</text><path d="M130,62 L130,550" stroke="#bdc9cd" stroke-dasharray="4 5"/><rect x="305" y="20" width="130" height="42" rx="8" fill="#f1f7f6" stroke="#5d8e88"/><text x="370" y="47" text-anchor="middle" font-size="16">记忆服务</text><path d="M370,62 L370,550" stroke="#bdc9cd" stroke-dasharray="4 5"/><rect x="555" y="20" width="130" height="42" rx="8" fill="#f1f7f6" stroke="#5d8e88"/><text x="620" y="47" text-anchor="middle" font-size="16">Agent</text><path d="M620,62 L620,550" stroke="#bdc9cd" stroke-dasharray="4 5"/><rect x="785" y="20" width="130" height="42" rx="8" fill="#f1f7f6" stroke="#5d8e88"/><text x="850" y="47" text-anchor="middle" font-size="16">动作网关</text><path d="M850,62 L850,550" stroke="#bdc9cd" stroke-dasharray="4 5"/>
<path d="M130,120 L362,120" fill="none" stroke="#45616b" stroke-width="1.8" marker-end="url(#arrow)"/><text x="165" y="108" font-size="14">撤销规则</text>
<rect x="318" y="156" width="104" height="45" fill="#e2eeeb"/><text x="370" y="175" text-anchor="middle" font-size="12">提交新版本</text><text x="370" y="191" text-anchor="middle" font-size="12">策略 epoch 增加</text>
<path d="M370,245 L138,245" fill="none" stroke="#45616b" stroke-width="1.8" marker-end="url(#arrow)"/><text x="170" y="233" font-size="14">确认停止适用</text>
<path d="M370,310 L612,310" fill="none" stroke="#45616b" stroke-width="1.8" marker-end="url(#arrow)"/><text x="420" y="298" font-size="14">通知上下文过时</text>
<path d="M620,380 L842,380" fill="none" stroke="#45616b" stroke-width="1.8" marker-end="url(#arrow)"/><text x="650" y="368" font-size="14">携旧收据申请动作</text>
<path d="M850,445 L378,445" fill="none" stroke="#45616b" stroke-width="1.8" marker-end="url(#arrow)"/><text x="480" y="433" font-size="14">同步检查当前规则与授权</text>
<path d="M370,510 L842,510" fill="none" stroke="#45616b" stroke-width="1.8" marker-end="url(#arrow)"/><text x="475" y="498" font-size="14">拒绝旧收据 要求刷新</text>
</svg>